<svg width="20" height="20" viewBox="0 0 20 20" fill="none" xmlns="http://www.w3.org/2000/svg">
<path d="M0 10C0 15.5142 4.48582 20 10 20C15.5142 20 20 15.5142 20 10C20 4.48582 15.5142 0 10 0C4.48582 0 0 4.48582 0 10ZM10.5892 6.91082L14.7558 11.0775C14.9183 11.24 15 11.4533 15 11.6667C15 11.88 14.9183 12.0934 14.7558 12.2559C14.43 12.5817 13.9033 12.5817 13.5775 12.2559L10 8.67832L6.4225 12.2558C6.09668 12.5816 5.57 12.5816 5.24418 12.2558C4.91836 11.93 4.91836 11.4033 5.24418 11.0775L9.41086 6.91082C9.73668 6.585 10.2633 6.585 10.5892 6.91082Z" fill="#141414" fill-opacity="0.8"/>
</svg>
