<svg width="12" height="12" viewBox="0 0 12 12" fill="none" xmlns="http://www.w3.org/2000/svg">
<path d="M6 0C2.69149 0 0 2.69149 0 6C0 9.30851 2.69149 12 6 12C9.30851 12 12 9.30851 12 6C12 2.69149 9.30851 0 6 0ZM7.85351 6.35351L5.3535 8.85349C5.256 8.95099 5.12801 9 4.99999 9C4.872 9 4.74398 8.95099 4.64648 8.85349C4.45099 8.658 4.45099 8.34199 4.64648 8.1465L6.79301 6L4.64651 3.8535C4.45102 3.65801 4.45102 3.342 4.64651 3.14651C4.842 2.95102 5.15801 2.95102 5.3535 3.14651L7.85351 5.64652C8.049 5.84201 8.049 6.15799 7.85351 6.35351Z" fill="#FF6400"/>
</svg>
