<svg width="20" height="20" viewBox="0 0 20 20" fill="none" xmlns="http://www.w3.org/2000/svg">
<path d="M10 20C15.5142 20 20 15.5142 20 10C20 4.48582 15.5142 0 10 0C4.48582 0 0 4.48582 0 10C0 15.5142 4.48582 20 10 20ZM6.91082 9.41082L11.0775 5.24418C11.24 5.08168 11.4533 5 11.6667 5C11.88 5 12.0934 5.08168 12.2559 5.24418C12.5817 5.57 12.5817 6.09668 12.2559 6.4225L8.67832 10L12.2558 13.5775C12.5816 13.9033 12.5816 14.43 12.2558 14.7558C11.93 15.0816 11.4033 15.0816 11.0775 14.7558L6.91082 10.5891C6.585 10.2633 6.585 9.73668 6.91082 9.41082Z" fill="#FF6400"/>
</svg>
