<svg width="12" height="12" viewBox="0 0 12 12" fill="none" xmlns="http://www.w3.org/2000/svg">
<g clip-path="url(#clip0_3087_3240)">
<path d="M11.5864 1.8535L6.62312 1.8535C6.39479 1.8535 6.2095 1.66822 6.2095 1.43948C6.2095 1.21076 6.39479 1.02547 6.62312 1.02547L11.5864 1.03745C11.8147 1.03745 12 1.21076 12 1.43948C12 1.66822 11.8151 1.8535 11.5864 1.8535ZM5.79591 10.9632L11.5864 10.964C11.8147 10.964 12 11.1485 12 11.3772C12 11.606 11.8147 11.7913 11.5864 11.7913L5.79591 11.7913C5.56758 11.7913 5.3823 11.606 5.3823 11.3772C5.3823 11.1485 5.56758 10.9632 5.79591 10.9632ZM6.49367 4.22099C6.33152 4.38397 6.06847 4.38397 5.90634 4.22099L3.72786 1.71412L3.72786 11.7913H2.90066L2.90066 1.69923L0.708927 4.22099C0.546795 4.38397 0.283726 4.38397 0.121613 4.22099C-0.0405378 4.05802 -0.0405378 3.79414 0.121613 3.6316L2.99287 0.327283C3.07932 0.240422 3.19429 0.20362 3.30721 0.209404C3.42052 0.20362 3.5351 0.240422 3.62153 0.327283L6.49281 3.6316C6.6558 3.79414 6.6558 4.05802 6.49367 4.22099ZM11.5864 9.30672L5.79591 9.30672C5.56758 9.30672 5.3823 9.12141 5.3823 8.89269C5.3823 8.66396 5.56758 8.48239 5.79591 8.48239L11.5864 8.48239C11.8147 8.48239 12 8.66398 12 8.89269C12 9.12141 11.8151 9.30672 11.5864 9.30672ZM11.5864 6.82259L5.79591 6.82259C5.56758 6.82259 5.3823 6.63728 5.3823 6.40856C5.3823 6.17983 5.56758 6.00117 5.79591 6.00117L11.5864 5.99454C11.8147 5.99454 12 6.17985 12 6.40856C12 6.63687 11.8151 6.82259 11.5864 6.82259ZM11.5864 4.33805L8.27755 4.33805C8.04922 4.33805 7.86394 4.15276 7.86394 3.92404C7.86394 3.6953 8.04922 3.51911 8.27755 3.51911H11.5864C11.8147 3.51911 12 3.6953 12 3.92404C12 4.15274 11.8151 4.33805 11.5864 4.33805Z" fill="black"/>
</g>
<defs>
<clipPath id="clip0_3087_3240">
<rect width="12" height="12" fill="white" transform="matrix(1 0 0 -1 0 12)"/>
</clipPath>
</defs>
</svg>
